<?xml version="1.0" encoding="utf-8"?>
<!-- Svg Vector Icons : http://www.onlinewebfonts.com/icon -->
<!DOCTYPE svg PUBLIC "-//W3C//DTD SVG 1.1//EN" "http://www.w3.org/Graphics/SVG/1.1/DTD/svg11.dtd">
<svg version="1.1" xmlns="http://www.w3.org/2000/svg" xmlns:xlink="http://www.w3.org/1999/xlink" x="0px" y="0px" viewBox="0 0 256 256" enable-background="new 0 0 256 256" xml:space="preserve">
<metadata> Svg Vector Icons : http://www.onlinewebfonts.com/icon </metadata>
<g><g><path fill="#000000" d="M63.3,196.8h15.2V212H63.3V196.8z"/><path fill="#000000" d="M63.3,158.7h15.2v15.2H63.3V158.7z"/><path fill="#000000" d="M63.3,120.7h15.2v15.2H63.3V120.7z"/><path fill="#000000" d="M101.3,196.8h15.2V212h-15.2V196.8z"/><path fill="#000000" d="M101.3,158.7h15.2v15.2h-15.2V158.7z"/><path fill="#000000" d="M101.3,120.7h15.2v15.2h-15.2V120.7z"/><path fill="#000000" d="M139.4,196.8h15.2V212h-15.2V196.8z"/><path fill="#000000" d="M139.4,158.7h15.2v15.2h-15.2V158.7z"/><path fill="#000000" d="M139.4,120.7h15.2v15.2h-15.2V120.7z"/><path fill="#000000" d="M177.5,196.8h15.2V212h-15.2V196.8z"/><path fill="#000000" d="M177.5,158.7h15.2v15.2h-15.2V158.7z"/><path fill="#000000" d="M177.5,120.7h15.2v15.2h-15.2V120.7z"/><path fill="#000000" d="M29,10v236h198V10H29L29,10z M219.4,238.4H36.6V17.6h182.7V238.4L219.4,238.4z"/><path fill="#000000" d="M188.9,48.1H67.1v45.7h121.8V48.1z M181.3,86.1H74.7V55.7h106.6V86.1L181.3,86.1z"/></g></g>
</svg>