<?xml version="1.0" encoding="utf-8"?>
<!-- Svg Vector Icons : http://www.onlinewebfonts.com/icon -->
<!DOCTYPE svg PUBLIC "-//W3C//DTD SVG 1.1//EN" "http://www.w3.org/Graphics/SVG/1.1/DTD/svg11.dtd">
<svg version="1.1" xmlns="http://www.w3.org/2000/svg" xmlns:xlink="http://www.w3.org/1999/xlink" x="0px" y="0px" viewBox="0 0 256 256" enable-background="new 0 0 256 256" xml:space="preserve">
<metadata> Svg Vector Icons : http://www.onlinewebfonts.com/icon </metadata>
<g><g><path fill="#000000" d="M172.2,16.4v16.1c34.9,16.6,59,52.1,59,93.3c0,57-46.2,103.2-103.3,103.2c-57,0-103.3-46.2-103.3-103.2c0-41.2,24.1-76.7,59-93.3V16.4C40.5,33.9,10,76.3,10,125.9c0,65.2,52.8,118,118,118c65.2,0,118-52.8,118-118C246,76.3,215.5,33.9,172.2,16.4z"/><path fill="#000000" d="M113.2,12.1h29.5v88.5h-29.5V12.1z"/></g></g>
</svg>