<?xml version="1.0" encoding="utf-8"?>
<!-- Svg Vector Icons : http://www.onlinewebfonts.com/icon -->
<!DOCTYPE svg PUBLIC "-//W3C//DTD SVG 1.1//EN" "http://www.w3.org/Graphics/SVG/1.1/DTD/svg11.dtd">
<svg version="1.1" xmlns="http://www.w3.org/2000/svg" xmlns:xlink="http://www.w3.org/1999/xlink" x="0px" y="0px" viewBox="0 0 256 256" enable-background="new 0 0 256 256" xml:space="preserve">
<metadata> Svg Vector Icons : http://www.onlinewebfonts.com/icon </metadata>
<g><g><path fill="#000000" d="M235,94.8h-48c-6.1,0-11.1-5-11.1-11.1c0-6.1,5-11.1,11.1-11.1h19.2c-17.4-24.6-45.9-40.6-78.3-40.6c-53,0-95.9,42.9-95.9,95.9s42.9,95.9,95.9,95.9c53,0,95.9-42.9,95.9-95.9c0-6.1,5-11.1,11.1-11.1c6.1,0,11.1,5,11.1,11.1c0,65.2-52.8,118-118,118c-65.1,0-118-52.8-118-118C10,62.8,62.8,10,128,10c39.5,0,74.5,19.5,95.9,49.4V39.5c0-6.1,5-11.1,11.1-11.1c6.1,0,11.1,5,11.1,11.1v44.3C246,89.9,241.1,94.8,235,94.8z"/></g></g>
</svg>